<svg width="271" height="37" viewBox="0 0 271 37" fill="none" xmlns="http://www.w3.org/2000/svg">
<g clip-path="url(#clip0_10_144)">
<path d="M42.7986 35.0146V5.95255H42.7122L37.0243 24.8233H36.6789L29.9117 5.95255H29.7822V24.6935C29.7822 27.0828 29.9261 28.9323 30.2139 30.2423C30.5017 31.5523 31.0259 32.6604 31.7865 33.5666C32.5471 34.4729 33.7332 35.4018 35.3427 36.3513V36.481H26.2486V36.3513C28.3453 33.2412 29.3937 29.7871 29.3937 25.987V5.56327L26.7213 4.22449V4.09473H36.979V4.22449L34.6952 5.77954L38.8764 17.2231L42.41 5.64978L39.7809 4.22449V4.09473H49.9954V4.22449L47.323 5.56327V35.0146L49.9954 36.3534V36.4831H40.1262V36.3534L42.7986 35.0146Z" fill="#3A1713"/>
<path d="M54.9947 22.1025C55.1386 22.1025 55.3832 22.1313 55.7265 22.189L58.8306 10.4859C59.0608 9.56522 59.1759 8.80108 59.1759 8.1976C59.1759 7.13275 58.8593 6.28416 58.2282 5.64978C57.5972 5.0154 56.6187 4.54168 55.2969 4.22449V4.09473H62.6664L70.4676 34.926L72.5787 36.3513V36.4811H62.6232V36.3513L65.4682 34.8395L62.8391 23.8717C62.7815 24.7636 62.4875 25.4268 61.9551 25.8573C61.4227 26.2898 60.8122 26.504 60.1236 26.504C59.6631 26.504 59.2191 26.4257 58.7874 26.2671C58.3557 26.1085 57.8685 25.8717 57.3217 25.5545C56.3453 25.0931 55.7553 24.8357 55.5538 24.778C55.1222 26.5926 54.9063 28.1311 54.9063 29.3978C54.9063 30.8664 55.2147 32.1248 55.8334 33.1753C56.4522 34.2257 57.4635 35.2844 58.8717 36.3492V36.479H50.2092V36.3492C51.2719 34.5923 52.1559 32.8725 52.8589 31.1897C53.5619 29.5049 54.2876 27.3258 55.0358 24.6482C54.6617 24.5617 54.2465 24.5185 53.786 24.5185C53.2392 24.5185 52.7376 24.6482 52.2771 24.9077C51.8167 25.1673 51.5453 25.5256 51.459 25.987L51.2863 25.9005C51.4302 24.8645 51.7817 23.9706 52.3429 23.2229C52.9041 22.4753 53.786 22.1004 54.9927 22.1004L54.9947 22.1025ZM59.844 23.7646C60.3188 23.9232 60.8142 24.0015 61.3302 24.0015C62.134 24.0015 62.5513 23.6122 62.58 22.8357L59.4329 9.62083L56.1582 22.2734C56.5899 22.3888 57.2354 22.6483 58.0967 23.0499C58.7853 23.3671 59.3671 23.604 59.8419 23.7626L59.844 23.7646Z" fill="#3A1713"/>
<path d="M92.9646 20.3765C92.9646 23.6287 92.5555 26.5081 91.7373 29.0127C90.9192 31.5172 89.7701 33.4595 88.29 34.8416C86.81 36.2236 85.1223 36.9136 83.227 36.9136C82.6226 36.9136 81.7469 36.8559 80.5978 36.7406C79.2185 36.5676 77.7816 36.4811 76.2871 36.4811H72.3649V36.3513L75.0373 35.0125V5.56327L72.3649 4.22449V4.09473H80.9411C84.9064 4.09473 87.9015 5.4191 89.9263 8.06784C91.9511 10.7166 92.9646 14.8195 92.9646 20.3744V20.3765ZM83.3976 36.5696C85.0072 36.5696 86.1768 35.2452 86.9107 32.5965C87.6425 29.9478 88.0105 26.1477 88.0105 21.1962C88.0105 17.2519 87.8316 14.0924 87.4719 11.7176C87.1121 9.34278 86.4379 7.53644 85.4471 6.29858C84.4562 5.06071 83.0111 4.44281 81.1158 4.44281H79.5638V31.7768C79.5638 33.1876 79.9009 34.339 80.5772 35.2308C81.2515 36.1227 82.193 36.5696 83.3996 36.5696H83.3976Z" fill="#3A1713"/>
<path d="M97.3595 35.0143V12.43L94.6872 11.0912V10.9614H103.566C106.612 10.9614 108.873 11.5526 110.353 12.7327C111.833 13.9129 112.573 15.7131 112.573 18.1312C112.573 19.5132 112.185 20.7078 111.41 21.715C110.635 22.7222 109.601 23.4863 108.308 24.0033C109.054 26.3925 109.889 28.5366 110.808 30.4377C111.726 32.3367 112.582 33.8424 113.371 34.9505C114.16 36.0586 114.742 36.6847 115.116 36.8289L114.944 37.0019C113.048 36.6847 111.459 36.0812 110.181 35.1873C108.902 34.2955 107.759 33.0432 106.754 31.4305C105.749 29.8178 104.7 27.6448 103.609 24.9095C103.292 24.823 103.027 24.7077 102.811 24.5635C102.595 24.4193 102.273 24.1598 101.841 23.787V35.0143L105.59 36.3531V36.4829H94.6872V36.3531L97.3595 35.0143ZM104.513 24.6933C105.518 24.6933 106.33 24.131 106.949 23.0085C107.566 21.8859 107.876 20.2588 107.876 18.1291C107.876 15.9994 107.582 14.2219 106.992 13.0561C106.402 11.8903 105.319 11.3075 103.738 11.3075H101.843V19.7274C101.843 21.5976 102.073 22.8952 102.532 23.614C102.99 24.3328 103.652 24.6933 104.513 24.6933Z" fill="#3A1713"/>
<path d="M121.668 5.56327V35.0146L124.34 36.3534V36.4831H114.471V36.3534L117.143 35.0146V5.56327L114.471 4.22449V4.09473H124.34V4.22449L121.668 5.56327Z" fill="#3A1713"/>
<path d="M145.803 20.3765C145.803 23.6287 145.394 26.5081 144.574 29.0127C143.753 31.5172 142.606 33.4595 141.126 34.8416C139.646 36.2236 137.959 36.9136 136.063 36.9136C135.459 36.9136 134.583 36.8559 133.434 36.7406C132.055 36.5676 130.618 36.4811 129.123 36.4811H125.201V36.3513L127.874 35.0125V5.56327L125.201 4.22449V4.09473H133.777C137.743 4.09473 140.738 5.4191 142.763 8.06784C144.787 10.7166 145.801 14.8195 145.801 20.3744L145.803 20.3765ZM136.236 36.5696C137.845 36.5696 139.015 35.2452 139.749 32.5965C140.481 29.9478 140.849 26.1477 140.849 21.1962C140.849 17.2519 140.67 14.0924 140.31 11.7176C139.95 9.34278 139.276 7.53644 138.285 6.29858C137.295 5.06071 135.849 4.44281 133.954 4.44281H132.402V31.7768C132.402 33.1876 132.739 34.339 133.416 35.2308C134.09 36.1227 135.031 36.5696 136.238 36.5696H136.236Z" fill="#3A1713"/>
<path d="M253.531 20.5537C253.157 20.4672 252.742 20.4239 252.281 20.4239C251.734 20.4239 251.233 20.5537 250.772 20.8132C250.312 21.0727 250.041 21.4332 249.954 21.8925L249.782 21.806C249.926 20.7699 250.277 19.8781 250.838 19.1284C251.399 18.3807 252.281 18.0059 253.488 18.0059C253.632 18.0059 253.876 18.0347 254.22 18.0924L254.651 18.1789C255.083 18.2942 255.729 18.5537 256.59 18.9554C257.279 19.2726 257.86 19.5094 258.335 19.668C258.81 19.8266 259.305 19.9049 259.821 19.9049C260.625 19.9049 261.042 19.5156 261.071 18.7391L261.33 19.7751C261.273 20.667 260.979 21.3302 260.446 21.7606C259.914 22.1932 259.303 22.4074 258.615 22.4074C258.154 22.4074 257.71 22.3291 257.279 22.1705C256.847 22.0119 256.36 21.7751 255.813 21.4579C254.836 20.9965 254.246 20.739 254.045 20.6814L253.527 20.5516L253.531 20.5537Z" fill="#3A1713"/>
<path d="M11.3595 13.5278C11.3595 15.3218 11.1334 16.9098 10.6832 18.2898C10.233 19.6698 9.59782 20.7429 8.78172 21.5049C7.96563 22.267 7.03442 22.6481 5.99015 22.6481C5.65714 22.6481 5.17406 22.6172 4.54092 22.5533C3.78033 22.4586 2.98891 22.4112 2.1646 22.4112H0V22.3391L1.4739 21.6017V5.36121L0 4.62385V4.55176H4.72799C6.9152 4.55176 8.56588 5.28088 9.6821 6.74119C10.7983 8.2015 11.3574 10.463 11.3574 13.5278H11.3595ZM6.08471 22.4565C6.97275 22.4565 7.61823 21.7274 8.02113 20.265C8.42404 18.8047 8.62755 16.71 8.62755 13.9789C8.62755 11.8039 8.52888 10.0614 8.32948 8.75349C8.13214 7.44354 7.76007 6.44872 7.21326 5.76491C6.66646 5.08315 5.87093 4.74125 4.8246 4.74125H3.96945V19.8119C3.96945 20.5904 4.15652 21.2248 4.52859 21.7171C4.90066 22.2094 5.41868 22.4545 6.08471 22.4545V22.4565Z" fill="#3A1713"/>
<path d="M21.6007 13.1469L21.5288 13.1716L18.6776 9.09963C18.4248 8.7186 18.0671 8.5291 17.6087 8.5291H16.2787V15.1242H16.659C17.0701 15.1242 17.4278 15.0521 17.7279 14.91C18.028 14.7679 18.3446 14.5063 18.6776 14.1252L19.913 12.6958H19.985V17.7441H19.913L18.6776 16.3147C18.3281 15.9172 18.0116 15.6515 17.7279 15.5176C17.4422 15.3837 17.0865 15.3157 16.659 15.3157H16.2787V20.2672C16.2787 20.9654 16.3732 21.4659 16.5644 21.7666C16.7535 22.0673 17.103 22.2198 17.6107 22.2198H17.991C18.2603 22.2198 18.4947 22.1477 18.692 22.0056C18.8893 21.8634 19.1072 21.608 19.3457 21.2435L22.3634 16.5289L22.4353 16.5536L21.722 22.6482L18.8236 22.4093H12.3133V22.3372L13.7872 21.5998V9.14701L12.3133 8.40964V8.33756H18.3014L21.13 8.09863L21.6048 13.1469H21.6007Z" fill="#3A1713"/>
<path d="M151.271 26.578L152.626 21.8634C152.753 21.3876 152.815 21.0066 152.815 20.7203C152.815 20.228 152.665 19.8305 152.362 19.5298C152.062 19.2291 151.579 18.951 150.913 18.6956V18.6235H154.739L159.491 35.5767L160.727 36.4109V36.483H155.475V36.4109L156.805 35.6488L154.642 27.6243H151.22C151.141 28.0527 151.1 28.4255 151.1 28.7427C151.1 29.2988 151.207 29.8302 151.421 30.339C151.635 30.8477 151.988 31.3709 152.478 31.9105L153.119 32.6252V32.6973H148.391V32.6252C149.088 31.6572 149.659 30.685 150.101 29.7087C150.545 28.7324 150.934 27.6882 151.267 26.578H151.271ZM152.959 21.3876L151.485 26.578C151.454 26.6727 151.417 26.7922 151.378 26.9343C151.339 27.0764 151.302 27.2433 151.271 27.4348H154.597L152.957 21.3876H152.959Z" fill="#3A1713"/>
<path d="M163.983 19.4353V34.9117C163.983 35.8324 164.347 36.2938 165.077 36.2938H165.693C166.074 36.2938 166.37 36.2073 166.583 36.0322C166.797 35.8571 166.993 35.5708 167.165 35.1754L169.564 29.5318L169.636 29.5566L168.947 36.7242L166.713 36.4853H160.012V36.4132L161.485 35.6759V19.4374L160.012 18.7V18.6279H165.453V18.7L163.979 19.4374L163.983 19.4353Z" fill="#3A1713"/>
<path d="M178.578 5.80209C179.914 4.31912 181.429 3.57764 183.125 3.57764C184.332 3.57764 185.366 3.77948 186.229 4.18318C187.093 4.58688 187.896 5.07502 188.643 5.65173L189.374 17.8718L189.245 17.915C188.153 14.5763 187.163 11.9852 186.27 10.1418C185.38 8.29841 184.531 7.01111 183.728 6.27787C182.924 5.54463 182.046 5.17594 181.098 5.17594C179.661 5.17594 178.535 6.04719 177.715 7.78761C176.895 9.52804 176.485 12.0408 176.485 15.3219C176.485 18.603 176.874 21.4103 177.649 24.0879C178.424 26.7655 179.495 28.889 180.86 30.4564C182.225 32.0259 183.725 32.8106 185.364 32.8106C186.513 32.8106 187.461 32.4151 188.209 31.6222C188.955 30.8313 189.329 29.8447 189.329 28.6645H189.588C189.588 30.4214 189.294 31.9249 188.704 33.1772C188.114 34.4295 187.319 35.379 186.311 36.0278C185.306 36.6746 184.186 37 182.95 37C181.111 37 179.546 36.2523 178.253 34.7549C176.96 33.2576 175.99 31.272 175.345 28.7963C174.699 26.3206 174.374 23.643 174.374 20.7636C174.374 17.4825 174.74 14.5372 175.474 11.9317C176.206 9.32619 177.242 7.28299 178.578 5.80003V5.80209Z" fill="#3A1713"/>
<path d="M198.08 5.56327V35.0146L200.752 36.3534V36.4831H190.883V36.3534L193.556 35.0146V5.56327L190.883 4.22449V4.09473H200.752V4.22449L198.08 5.56327Z" fill="#3A1713"/>
<path d="M204.284 35.0145V5.56319L201.612 4.2244V4.09464H213.335L218.032 3.66211L219.325 14.1129L219.196 14.1562L214.714 6.72896C214.168 5.80829 213.666 5.19657 213.206 4.89379C212.745 4.59102 212.143 4.44067 211.394 4.44067H208.808V21.4103C209.01 20.4608 209.405 19.6761 209.995 19.0561C210.585 18.4362 211.337 18.1272 212.258 18.1272C212.805 18.1272 213.3 18.1911 213.744 18.3208C214.19 18.4506 214.686 18.6442 215.23 18.9037C215.604 19.0479 215.977 19.1838 216.351 19.3136C216.725 19.4433 217.082 19.5072 217.428 19.5072C218.003 19.5072 218.462 19.3713 218.807 19.0973C219.153 18.8234 219.325 18.5721 219.325 18.3414H219.412C219.383 19.4928 219.132 20.3702 218.657 20.9757C218.182 21.5813 217.485 21.882 216.566 21.882C216.077 21.882 215.654 21.8305 215.296 21.7316C214.938 21.6328 214.47 21.4804 213.896 21.2785C213.407 21.0767 212.992 20.9263 212.646 20.8254C212.301 20.7245 211.915 20.675 211.483 20.675C210.794 20.675 210.175 20.8769 209.631 21.2806C209.084 21.6843 208.813 22.1724 208.813 22.7491V32.5944C208.813 33.8611 208.985 34.7673 209.331 35.3152C209.676 35.8631 210.307 36.1349 211.226 36.1349H212.174C212.72 36.1349 213.179 36.0052 213.553 35.7457C213.927 35.4861 214.27 35.0701 214.587 34.4934L219.414 24.9509L219.543 24.9942L218.25 36.9135L213.855 36.481H201.616V36.3512L204.288 35.0124L204.284 35.0145Z" fill="#3A1713"/>
<path d="M228.247 5.56327V33.6325C228.247 35.3029 228.907 36.1371 230.228 36.1371H231.349C232.037 36.1371 232.578 35.9785 232.964 35.6613C233.351 35.3441 233.704 34.8271 234.021 34.1062L238.373 23.8717L238.502 23.915L237.252 36.9136L233.201 36.4811H221.048V36.3513L223.72 35.0125V5.56327L221.048 4.22449V4.09473H230.917V4.22449L228.245 5.56327H228.247Z" fill="#3A1713"/>
<path d="M241.845 28.8394C240.48 26.306 239.797 23.4843 239.797 20.3762C239.797 16.9798 240.486 14.0077 241.865 11.4599C243.245 8.91209 245.105 6.96158 247.446 5.60837C249.788 4.25516 252.353 3.57959 255.139 3.57959C257.924 3.57959 260.656 4.26958 263.069 5.65162C265.483 7.03366 267.407 8.98418 268.844 11.5032C270.281 14.0221 270.998 16.9222 270.998 20.2053C270.998 23.4884 270.315 26.6109 268.951 29.1443C267.586 31.6777 265.705 33.6199 263.306 34.9732C260.907 36.3264 258.185 37.0019 255.139 37.0019C252.322 37.0019 249.745 36.2749 247.403 34.8207C245.062 33.3666 243.208 31.3728 241.843 28.8394H241.845ZM251.369 31.9269C253.94 34.0133 256.719 35.0576 259.708 35.0576C262.093 35.0576 263.996 34.244 265.419 32.6169C266.841 30.9897 267.553 28.6808 267.553 25.6861C267.553 22.6913 266.807 19.4535 265.312 16.3146C263.818 13.1756 261.822 10.601 259.322 8.5846C256.822 6.56818 254.15 5.561 251.305 5.561C248.748 5.561 246.729 6.32308 245.249 7.8493C243.769 9.37551 243.029 11.5485 243.029 14.3702C243.029 17.538 243.775 20.7326 245.269 23.956C246.764 27.1793 248.797 29.8363 251.369 31.9228V31.9269Z" fill="#3A1713"/>
</g>
<defs>
<clipPath id="clip0_10_144">
<rect width="271" height="37" fill="white"/>
</clipPath>
</defs>
</svg>
