<svg width="1280" height="131" viewBox="0 0 1280 131" fill="none" xmlns="http://www.w3.org/2000/svg">
<path d="M400.85 75.8292C356.662 73.2546 307.62 71.9673 253.234 71.9673C188.652 71.9673 129.412 75.8292 75.0268 83.5531C20.6417 91.277 -11.4092 102.005 -21.6064 115.675L-42 113.1C-25.0046 82.2658 16.5129 55.7225 82.7948 33.409C149.077 11.1568 253.234 0 395.753 0C412.748 0 441.638 0.858201 482.185 2.57463L533.173 5.1493C584.159 8.58215 660.394 16.306 762.123 28.2597C843.458 37.7 912.167 44.7496 968.252 49.4698C1024.34 54.19 1082.85 56.5194 1143.79 56.5194C1238.72 56.5194 1288.01 44.9336 1291.41 21.8231L1322 52.6575C1315.2 79.2008 1280.48 98.9396 1217.6 111.752C1154.72 124.625 1082.61 131 1001.27 131C946.886 131 894.443 128.671 843.457 123.95C792.471 119.23 734.93 112.181 670.347 102.74C555.022 89.0089 485.341 81.3463 461.548 79.6299L400.364 75.7679L400.85 75.8292Z" fill="#7CBFC5"/>
</svg>
